<?xml version="1.0" encoding="UTF-8"?>
<svg id="Design" xmlns="http://www.w3.org/2000/svg" viewBox="0 0 235.97 277.7">
  <defs>
    <style>
      .cls-1 {
        fill: #d7b6bd;
      }
    </style>
  </defs>
  <path class="cls-1" d="M179.32,264.74c-31.5,16.12-43.05-30.99-58.54-28.58-16.43,2.57-52.72,17.77-70.46,23.09-4.45,1.32-17.26,14.04-23.68,14.45l-.35-1.15c10.63-19.74,59.53-24.51,80.85-36.87,27.66-16.03,48.36-29.56,68.8-54.52l1.12,2.26c-12.44,16.7-21.81,25.86-39.12,37.48l-3.01,4.96c-5.1,1.77-6.69,2.57-11.41,5.21,32.93-7.11,43.42,5.7,55.8,33.68Z"/>
  <path class="cls-1" d="M140.06,222.02c8.52-5.18,42.08-18.74,48.61-11.11-4.11,3.22-8.3,6.37-12.54,9.45-15.07-.22-20.12.18-34.7,3.43l-1.37-1.77Z"/>
  <path class="cls-1" d="M177.25,221.06c5.32-3,8.16-4.76,13.05-8.4,6.61-2.5,20.06,2.07,21.37,8.57-16.16-.75-16.43,4.09-34.42-.18Z"/>
  <path class="cls-1" d="M193.63,224.49c7.68-.96,15.41-.7,22.91-2.02,4.02,4.02,8.52,8.35,10.37,13.86-5.32-.21-8.17.05-13.53.61-6.25-4.84-12.92-8.48-19.76-12.44Z"/>
  <path class="cls-1" d="M229.8,271.73c-10.18-8.36-11.65-9.32-24.71-8.76l-2.09.08c-6.87.96-16.43,3.49-21.8-.27-6.84-20.22-16.16-28.97-35.63-36.01l-.02-1.35c37.2-6.21,64.83,1.37,83.9,35.69-1.86-9.48-7.82-15.55-13.97-22.98l12.76.62c5.03,12.13,6.63,20.49,1.55,32.98Z"/>
  <path class="cls-1" d="M179.32,264.74c-31.5,16.12-43.05-30.99-58.54-28.58-16.43,2.57-52.72,17.77-70.46,23.09-4.45,1.32-17.26,14.04-23.68,14.45l-.35-1.15c10.63-19.74,59.53-24.51,80.85-36.87,27.66-16.03,48.36-29.56,68.8-54.52l1.12,2.26c-12.44,16.7-21.81,25.86-39.12,37.48l-3.01,4.96c-5.1,1.77-6.69,2.57-11.41,5.21,32.93-7.11,43.42,5.7,55.8,33.68Z"/>
  <path class="cls-1" d="M188.67,210.92c-4.11,3.22-8.3,6.37-12.54,9.45-15.07-.22-20.12.18-34.7,3.43l-1.37-1.77c8.52-5.18,42.08-18.74,48.61-11.11Z"/>
  <path class="cls-1" d="M177.25,221.06c5.32-3,8.16-4.76,13.05-8.4,6.61-2.5,20.06,2.07,21.37,8.57-16.16-.75-16.43,4.09-34.42-.18Z"/>
  <path class="cls-1" d="M226.91,236.33c-5.32-.21-8.17.05-13.53.61-6.25-4.84-12.92-8.48-19.76-12.44,7.68-.96,15.41-.7,22.91-2.02,4.02,4.02,8.52,8.35,10.37,13.86Z"/>
  <path class="cls-1" d="M188.67,210.92c-4.11,3.22-8.3,6.37-12.54,9.45-15.07-.22-20.12.18-34.7,3.43l-1.37-1.77c8.52-5.18,42.08-18.74,48.61-11.11Z"/>
  <path class="cls-1" d="M226.91,236.33c-5.32-.21-8.17.05-13.53.61-6.25-4.84-12.92-8.48-19.76-12.44,7.68-.96,15.41-.7,22.91-2.02,4.02,4.02,8.52,8.35,10.37,13.86Z"/>
  <path class="cls-1" d="M211.67,221.24c-16.16-.75-16.43,4.09-34.42-.18,5.32-3,8.16-4.76,13.05-8.4,6.61-2.5,20.06,2.07,21.37,8.57Z"/>
  <line class="cls-1" x1="205.09" y1="262.97" x2="203" y2="263.05"/>
  <path class="cls-1" d="M88.58,4.09c22.35-.87,44.1,5.34,61.22,20.1,18.79,16.21,27.74,40.27,29.4,64.55,4.84,70.3-29.84,119.89-93.16,147.27-19.49,8.43-44.23,11.67-60.53,25.88-3.36,2.93-6.01,7.28-8.99,10.69l-1.08-.08c2.33-6.18,8.09-13.97,13.51-17.78,10.23-7.16,22.58-10.73,34.05-15.32,24.54-9.8,48.34-22.07,67.51-40.46,2.2-2.28,4.33-4.67,6.4-7.06,20.78-23.9,33.95-59.61,31.48-91.34-2.01-26.91-14.66-51.9-35.16-69.44-15.82-13.35-36.61-21.42-57.47-19.5-13.99,1.29-29,7.46-38.05,18.59-5.53,6.81-7.97,15.19-6.88,23.92.73,5.9,4.02,11.16,8.68,14.76,5.02,3.88,11.38,5.59,17.67,4.75,9.5-1.3,13.51-8.14,18.94-15.11l1.08-.07c.48,1.01.83,1.78,1.04,2.89.94,4.99.38,11.04-2.63,15.19-4.45,6.12-12.68,9.72-20.01,10.59-6.92.87-13.88-1.15-19.26-5.59-6.84-5.57-10.74-14-11.46-22.71-.92-11.29,2.84-23.23,10.2-31.84,13.1-15.35,34.07-21.53,53.5-22.87Z"/>
  <path class="cls-1" d="M128.08,144.46c-.8-15.69-16.98-34.32-33.44-32.34,3.62,8.09,6.82,12.46,10.53,19.82,17.56,11.11,16.08,42.21,7.6,58.92,1.27-3.9,2.34-7.87,3.22-11.9,3.97-19.2-1.35-31.32-11.5-46.92l-12.41-19.63c-8.68-5.69-27.28,4.49-34.24,10.5,3.49.41,8.14,1.12,11.55,1.34,4.29-.41,5.88-.51,10.13.83l2.53,1.39c-1.8.92-.78.67-3.3-.05-4.38-.57-6.02-.32-10.39.1-.02,2.69,1.72,5.82,2.98,8.24,2.84,5.45,3.03,12.46,4.92,17.8,29.43,1.15,40.47,26.43,26.48,50.14l-1.21.51c.91-4.62,3.12-8.44,3.76-13.34,2.92-22.66-6.6-34.14-28.9-34.93-.89,4.6-1.35,10.02.14,14.55l1.48,1.58c12.43,4.4,29.67,32.3,16.12,37.91,1.53-8.05,3.12-11.7-.94-19.61-3.82-7.46-8.78-12.76-16.16-16.73.13,2.92.35,8.73,1.5,11.12,5.15,10.75,17.91,21.16,6.1,33.3-11.12,11.44-32.85,16.65-47.34,23.23l.81,1.35c26.26-8.16,51.93-18.55,69.31-40.42,13.97-16.51,21.76-34.96,20.65-56.74Z"/>
  <path class="cls-1" d="M194.76,147.83c-3.51-2.05-11.81-5.96-10.2-10.64,2.79-1.88,5.99-1.94,9.42-2.41.64-7.29-11.3-15.31-5.18-24.9,1.7-2.63,4.49-4.37,7.62-4.76,17.24-2.24,9.61,23.46,2.63,31.82l-.72.84c-2.17,2.22-2.77,6.77-3.57,10.05Z"/>
  <path class="cls-1" d="M198.71,138.43c6.1-2.18,9.78-2.27,13.21,3.52-.72,9.22-8.6,7.77-15.22,5.72.76-2.68,1.27-6.24,2.01-9.23Z"/>
  <path class="cls-1" d="M194.76,147.83c.8-3.27,1.4-7.82,3.57-10.05l.38.64c-.73,2.99-1.24,6.55-2.01,9.23-2.64,10.28-13.19,27.26-19.65,35.75l-1.12-2.26c7.7-10.24,14.02-21.44,18.82-33.32Z"/>
  <path class="cls-1" d="M38.12,241.62c-19.33,8.75-24.14,13.83-34.45,31.53l-.57-.51c-1.05-13.17,23.5-28.14,34.21-32.37l.81,1.35Z"/>
</svg>