<?xml version="1.0" encoding="UTF-8"?>
<svg id="Design" xmlns="http://www.w3.org/2000/svg" viewBox="0 0 255 255">
  <defs>
    <style>
      .cls-1 {
        fill: #d7b6bd;
      }
    </style>
  </defs>
  <path class="cls-1" d="M204.21,206.73c3.57,7.25,7.22,14.45,10.96,21.62,1.69,1.04,1.04.72,3.09,1.05,13.54-4.27,14.04-22.48,13.16-34.07-11.98-3.52-18.47-8.86-28.58-15.93,3.6,11.52,4.59,15.77,1.37,27.33Z"/>
  <path class="cls-1" d="M183.08,215.61c3.6,7.54,4.43,11.52,5.5,19.84,4.59.75,12.49,2.28,16.87,2.33,3.43-1.55,7.01-2.64,9.13-5.54,0-1.24.1-1.9-.18-3.11-2.98-3.28-9.78-16-12.36-20.62-.37.37-.72.73-1.08,1.08-6.91,6.56-8.78,6.28-17.88,6.02Z"/>
  <path class="cls-1" d="M204.21,206.73c3.57,7.25,7.22,14.45,10.96,21.62,1.69,1.04,1.04.72,3.09,1.05,13.54-4.27,14.04-22.48,13.16-34.07-11.98-3.52-18.47-8.86-28.58-15.93,3.6,11.52,4.59,15.77,1.37,27.33Z"/>
  <path class="cls-1" d="M183.08,215.61c3.6,7.54,4.43,11.52,5.5,19.84,4.59.75,12.49,2.28,16.87,2.33,3.43-1.55,7.01-2.64,9.13-5.54,0-1.24.1-1.9-.18-3.11-2.98-3.28-9.78-16-12.36-20.62-.37.37-.72.73-1.08,1.08-6.91,6.56-8.78,6.28-17.88,6.02Z"/>
  <path class="cls-1" d="M4.71,172.81c4.7,31.12,35.16,62.14,68.64,57.44,12.08-1.63,23.01-8,30.34-17.73,6.6-8.76,9.46-19.77,7.97-30.64-2.61-17.62-18.07-32.54-36.6-29.05-6.8,1.26-12.79,5.21-16.6,10.98-7.87,12.03-1.1,19.15,8.78,25.43l1.77-1.15c-3-6.33-8-13.18-3.87-19.79,10.05-16.09,34.02-3.6,37.06,11.95,4,20.36-8.73,37.17-28.6,41.25-31.71,5.82-56.88-22.02-61.53-51.27-3.62-22.7,1.93-42.75,14.99-61.25l1.02,1.88c-20.16,29.27-16.25,76.07,12.25,98.88-4.08-3.74-48.55-51.29-1.02-109.78,27.99-27.69,62.01-32.19,97.42-16.7,34.34,15.03,51.75,37.62,56.47,74.3-3.68.84-5.86,1.27-9.4,2.82l-2.15-.69c-7.44-28.07-17.29-52.53-53.42-42.18-4.59,1.32-10.36,3.28-15.09,3.98,23.07-15.31,36.53-14.12,59.1.13-24.68-30.7-42.38-28.04-69.37-2.77-2.55,2.37-8.65,5.21-12.05,6.52,8.48,1.69,16.73,3.74,25.41,2.87,21.29-2.12,38.99-16.71,54.99,7.55,4,6.07,9.02,16.46,7.41,24.01-2.93,13.62-42.06,15.41-20.04,54,4.08,7.15,13.62,17.38,13.62,25.81-2.02,3.84-1.64,2.79-5.99,5.19,5.35,9.5,27.31-4.84,13.07-29.11-8.06-5.82-16.65-35.31-9.51-41.57l-.33,4.84c-.7,9.7,1.59,20.43,7.63,28.36,3.28,4.67,12.78,8.48,17.54,4.22,17.62-15.73,5.93-33.06-6.76-46.86,18.34,10.72,28.39,27.91,50.64,30.19,5.37-2.04,11.93-5.35,12.92-11.62-.22-.54-.56-1.37-.99-2.47-4.21-.37-12.86.61-16.28-1.45-17.43-10.48-16.7-21.16-39.12-22.47-.8-25.3-9.62-39.16-22.63-59.62,2.02-25.08,19.34-29.25,34.18-48.2-1.88,4.7-3.81,9.05-6.91,13.1-7.25,9.4-22.19,18.47-24.23,30.8l1.27.96c5.26.08,9.8-2.76,14.02-5.61,23.8-16.09,26.47-43.8,10.99-66.3,8.7,46.84-44.15,26.75-30.34,73.17-.56-.46-1.1-.92-1.66-1.37-23.93-19.55-48.64-30-80.42-26.56C35.63,73.07-3.5,118.4,4.71,172.81Z"/>
  <path class="cls-1" d="M104.32,81.86c-1.63,1.18-1.98,1.55-3.86,2.33-25.81,10.31-32.82,23.77-38.8,49.66,5.93-3.94,15.25-10.77,18.87-16.57,10.4-16.68,7.82-24.9,26.77-34.73l-1.67-2.25c-21.46-6.56-45.6,10.68-50.75,31.25-2.95,11.77-1.51,17.96,1.59,29.11,9.34-31.25,8.29-44.07,42.37-58.59,2.82-.53,3.44-1.19,5.48-.21Z"/>
  <path class="cls-1" d="M126.89,7.23c-6.95,6.28-14.51,12.45-18.51,21.14-3.21,6.97-3.8,15.57-1.11,22.81,2.39,6.28,7.19,11.35,13.34,14.08,1.09-1.76-1.79-7.08-2.49-9.25-3.12-9.7-1.68-17.83,1.77-27.19,1.8-3.99,4.1-7.82,6.22-11.66-1.84,10.39-7.45,20.8-6.24,31.51.65,5.74,3.08,10,7.63,13.57-3.93-13.36,4.53-16.97,6.82-28.35,1.89-9.41-2.83-13.8-7.36-20.91-1.35-2.12-.53-3.38-.04-5.73Z"/>
  <path class="cls-1" d="M25.59,44.87l3.47-.35c3.76.19,7.36,1.67,11.63,2.41,18.85,3.25,36.53,2.49,51.81,15.47-24.43-42.06-39.28-12.65-66.86-25.54-1.35,1.83-.72,5.86-.06,8.01Z"/>
  <path class="cls-1" d="M29.15,48.79c14.56,19.09,35.66,15.74,56.4,14.95-19.61-15.52-34.56-8.8-55.13-16.7l-1.27,1.75Z"/>
</svg>