<?xml version="1.0" encoding="UTF-8"?>
<svg id="Design" xmlns="http://www.w3.org/2000/svg" viewBox="0 0 255 270.22">
  <defs>
    <style>
      .cls-1 {
        fill: #d7b6bd;
      }
    </style>
  </defs>
  <path class="cls-1" d="M184.84,133.35c-9.02-4.68-15.07-22.5-6.13-30.86,10.68,10.2,10.64,17.27,6.13,30.86Z"/>
  <path class="cls-1" d="M221.57,160.96c-6.82-6.44-20.49-12.91-23.01-16.4,1.21-2.34,1.13-2.26,1.39-4.91l-1.31.35-2.18,4.14c-4.27-2.06-8.72-5.11-10.53-9.66,3.57-5.43,3.44-12.35,3.9-18.83,6.66,6.93,11.33,13.38,15.85,21.83,1.63,3.03,2.93,8.08,5.4,9.7.27-3.22-5.24-13.38-7.12-17.4l-.54-.67c1.53-.73,4.64-.4,7.57-1.05l.97,3.89c3.98,10.45,4.32,18.64,9.61,29Z"/>
  <path class="cls-1" d="M238.85,73.07c-6.93,2.77-12.68-3.78-14.31-3.54-27.5,4.05-57.28,14.93-83.6,24.68,5.97-.48,12.99-1.37,18.8-.41l3.89.51c21.19,3.12,39.45,12.97,47.35,33.76-2.93.65-6.04.32-7.57,1.05-3.11-5.43-19.66-25.51-24.68-27.52-3.65-3.23-10.26-4.32-15.1-5.45l-1.96.08c-15.81-.84-27.01,1.23-40.81,9.61-35.24,21.38-57.79,56.58-51.11,99.09.91,4.89,1.24,7.7,3.31,12.25.57-2.74-.81-21.57-.91-25.97.61-18.66,11.76-46.02,28.86-55.77,10.6-6.02,20.81-3.92,31.9-.75,15.1-18.21,32.26,9.15,13.73,15.2-12.81,4.19-9.27-9.93-17.67-13.99-20.33-9.81-36.17,5.88-45.35,22.82,10.31-6.69,28.81-10.88,31.85,5.53-4.91,5.5-27.45-1.04-36.63,10.45-.81,3.04-.96,1.96-.06,4.68,3.41-1.83,7.66-4.97,11.07-4.53l.89,1.7c-1.67,3.65-7.74,7.89-11.77,14.23l-.7,1.12c-.53,4.96-.64,10.66-.84,15.68,3.68-6.12,9.15-13.64,16.71-14.88,3.6,1.02,2.28.25,4.94,3.06,2.9,7.73-2.9,10.1-2.8,17.4.03,2.2-6.48,3.43-7.42,6.26-4.24,12.73,8.41,24.65,18.15,30.4,12.83,7.46,28.06,9.54,42.4,5.82,15.47-3.98,28.49-14.2,32.23-30.13,3.52-15.03-4.16-32.36-22.13-27.87-4.73,1.19-8.99,11.2-10.98,15.34l-1.35.33c-4.8-7.11-3.65-15.01,2.84-20.62,9.74-8.43,26.48-5.08,34.07,4.6,14.39,18.39,4.89,43.29-11.9,56.37-13.16,10.26-29.84,13.85-46.22,11.7-19.58-2.61-37.3-12.94-49.25-28.68-15.77-20.76-19.49-49.35-16.2-74.65.05-6.95,1.39-18.47-2.66-23.64-5.66-5.34-13.58-7.79-21.16-8.59-9.18-7.86,11.5-16.22,18.43-4.68.43.72,4.22,5.66,4.97,6.05l.06-.89,2.31-.29c.62,13.91.97,21.45-.4,35.32l-.96,6.71,1.15,1.82c1.08-1.16.89-.53,1.13-1.85,22.55-76.46,93.69-84.88,159.25-105.96,2.74-.88,7.6-13.56,17.19-11.92,7.42,4.46,7.68,15.47-.97,18.93Z"/>
  <path class="cls-1" d="M184.84,133.35c-9.02-4.68-15.07-22.5-6.13-30.86,10.68,10.2,10.64,17.27,6.13,30.86Z"/>
  <path class="cls-1" d="M211.96,131.96c-3.23-1.21-4.59-1.5-8-2.17l-.54-.67c1.53-.73,4.64-.4,7.57-1.05l.97,3.89Z"/>
  <path class="cls-1" d="M36.55,131.44c8.76,1.31,13.1,3.51,20.46,8.89-3.57,8.27-21.8,3.03-20.46-8.89Z"/>
  <path class="cls-1" d="M57.01,140.33c-3.57,8.27-21.8,3.03-20.46-8.89,8.76,1.31,13.1,3.51,20.46,8.89Z"/>
  <path class="cls-1" d="M62.46,130.02l-2.31.29c-.1-14.53-7.78-27.99-18.18-37.67l-8.14-6.41c-15.71,16.35-28.65-1.83-22.74-12,1.26-2.1,3.3-3.62,5.67-4.21,9.89-2.55,15.81,3.76,17.45,12.86l.35,2.01c3.19,1.69,4.27,2.15,6.9,4.57,13.02,11.11,19.04,23.6,21,40.55Z"/>
  <path class="cls-1" d="M170.79,43.17c-1.64,2.17-4.33,2.25-7.09,2.42-.62.05-1.24.08-1.88.1l-1.69,1.5c.43,1.04.22,1.29,1.23,1.77,7.5,3.57,8.32,16.55,3,22.2-9.94,10.56-19.82-4.97-23.69-12.38-.13,2.92-.38,10.77-1.05,13.3-1.75-.53-1.69-.7-3.27-1.8-1.83-3.28-1.67-5.48-1.86-9.19-.1-2.14-.48-3.47-.97-5.53l-.78.46-.24,4.03c-3.81,35.85-39.51,15.12-21.41-5.8l.7-.81c-1.58-1.88-5.29,1.98-11.09.4-4.09-4.11-22.77-23.04-24.36-27.13,3.49-4.53,13.42-5.62,18.79-5.58,15.55.14,25.46,5.85,35.99,16.67l.11-1.12c2.34-27.23-20.33-25.19-21.64-28.41,11.52-4.11,19.23,10.13,23.14,18.5,1.35-7.23,6.45-24.55,16.63-22.32-7.54,10.09-17.62,6.84-14.44,27.48.29,1.83.7,3.82,1.08,5.64,3.03-7.01,5.97-11.58,12.06-16.48,6.13-4.92,27.2-15.57,34.18-9.02.65,4.88-7.9,26.45-11.44,31.1Z"/>
</svg>