<?xml version="1.0" encoding="UTF-8"?>
<svg id="Design" xmlns="http://www.w3.org/2000/svg" viewBox="0 0 255 290.67">
  <defs>
    <style>
      .cls-1 {
        fill: #d7b6bd;
      }
    </style>
  </defs>
  <path class="cls-1" d="M200.8,27.29c14.16-4.4,18.98-5.59,22.66-21.25-23.74,3.46-56.98-13.32-69.39,15.04-10.56.7-20.98,2.82-30.99,6.29-35.29,12.03-65.2,39.39-81.63,72.66-2.6-11.31-5.8-21.03-19.93-20.06-2.74.19-5.94.13-7.84,2.13,5.88,7.25,10.4,13.37,15.76,21.02,2.02,2.96,4.11,6.39,4.53,9.91-2.52-1.43-4.62-6.18-6.33-9.13-5.8-4.97-16-6.64-22.05-1.55l-.65,2.41,1.4,2.26,3.92,1.35-2.02,1.1-5.31-.48c-3.89,16.19,13.91,20.87,26.07,21.3-1.69,6.39-3.04,12.87-4.05,19.41-5.29,33.65-.8,68.94,19.87,96.92,15.3,20.98,38.32,34.99,63.97,38.89,58.25,8.4,117.71-40.12,94.18-102.45-2.92-7.73-8.72-14.83-13.72-21.45,23.52-2.02,48.76-9.61,58.28-33.19,16.52-40.85-9.42-84.48-46.73-101.14ZM190.75,178.59c12.99,32.87-8.59,63.81-42.75,62.38-5.42-.22-20.92-1.42-23.31,5.56-2.93,11.73,5.53,21.69,15.6,24.68.92.29,1.88.54,2.82.78,3.97-.3,7.68-.91,11.49.05-1.53,1.04-1.69,1.35-3.46,1.67-30.29,11.19-62.14,5.07-86.49-16.24-16.83-14.72-40.69-49.15-21.48-70.79,16.08-18.08,18.66,1.96,34.48.89,16.51-.45,16.87-22.48,4.99-28.35-16.81-8.29-35.93,5.8-43.8,19.09l-1.67-.61c22.74-46.54,81.08-51.74,122.54-27.64-9.46,19.23-10.28,45.78,19.84,37.76-4.38,5.03-24.65,28.73-29.89,29.7-3.47-.99-4.25-1.51-7.38-3.39-1.34,2.23-.59,10.1.22,12.3,9.11,24.62,39.23,4.32,45.08-11.85,5.64-15.61,5.77-21.45,3.17-35.99ZM199.11,152.79c-7.58-14.34-17.29-19.82-32.3-10.96-1.05.62-2.09,1.26-3.09,1.94-46.73-23.23-103.18-19.41-131.32,29.86,0,.35-.53,1.29-.72,1.67-1.39-4.48-.69-13.02.18-17.73-.27-17.38,11.79-47.42,20.22-62.28,7.15,7.22,14.01,11.38,24.98,9.85,12.35-1.72,28.25-23.36,11.26-30.15-7.87-3.15-18.91.8-26.56,4.21,23.45-27.76,42.18-40.61,77.55-49.65-22.4,54.09,65.33,59.54,17.4,6.04-2.66-2.17-3.35-2.06-4.53-5.02,3.11.37,2.68.73,5.62,2.87,12.06,10.44,11.7,28.66,24.74,34.65,15.5,7.11,22.16-11.63,15.9-23.14-6.26-11.49-14.83-15.63-26.43-19.65-2.92-.35-10.12-2.5-13.3-3.36,6.18.19,8.86.24,14.82,1.59,25.65,5.77,46.25,16.57,60.15,39.61,24.03,39.83,13.1,80.53-34.58,89.64ZM56.05,90.83c3.84-2.25,7.47-2.9,11.82-3.65,3.25-.4,6.56-.19,9.83-.13-3.51,2.12-9.51,2.44-13.61,3.15-2.47.59-4.88,1.08-7.39,1.39l-.65-.76Z"/>
  <line class="cls-1" x1="10.26" y1="108.37" x2="8.23" y2="109.47"/>
  <line class="cls-1" x1="38.84" y1="178.32" x2="37.17" y2="177.71"/>
</svg>